<?xml version="1.0" encoding="utf-8"?>
<!-- Generator: Adobe Illustrator 25.1.0, SVG Export Plug-In . SVG Version: 6.00 Build 0)  -->
<svg version="1.1" id="Layer_1" xmlns="http://www.w3.org/2000/svg" xmlns:xlink="http://www.w3.org/1999/xlink" x="0px" y="0px"
	 viewBox="0 0 152.7 100.7" style="enable-background:new 0 0 152.7 100.7;" xml:space="preserve">
<style type="text/css">
	.st0{fill:none;}
	.st1{font-family:'MyriadPro-Regular';}
	.st2{font-size:13px;}
	.st3{fill:none;stroke:#020202;stroke-width:3;stroke-miterlimit:10;}
</style>
<path d="M2,0C0.9,0,0,0.9,0,2.1v96.6c0,1.1,0.9,2,1.9,2H28v-1.8H2c-0.1,0-0.2-0.1-0.2-0.3V2c0-0.2,0.1-0.2,0.2-0.2h148.8
	c0.1,0,0.2,0.1,0.2,0.3v96.6c0,0.1-0.1,0.2-0.2,0.2h-27.4v1.8h27.4c1.1,0,1.9-0.9,1.9-2.1V2c0-1.1-0.9-2-1.9-2H2z"/>
<rect x="-7.3" y="41" class="st0" width="149.3" height="65"/>
<text transform="matrix(1 0 0 1 5.1655 50.23)"><tspan x="0" y="0" class="st1 st2">VIRTUAL HUMANS FOR </tspan><tspan x="17.7" y="15.6" class="st1 st2">SERIOUS GAMES</tspan></text>
<line class="st3" x1="28" y1="99.9" x2="123.3" y2="99.9"/>
</svg>
